<?xml version="1.0" encoding="utf-8"?>
<!-- Generator: Adobe Illustrator 17.0.0, SVG Export Plug-In . SVG Version: 6.00 Build 0)  -->
<!DOCTYPE svg PUBLIC "-//W3C//DTD SVG 1.1//EN" "http://www.w3.org/Graphics/SVG/1.1/DTD/svg11.dtd">
<svg version="1.1" id="Layer_1" xmlns="http://www.w3.org/2000/svg" xmlns:xlink="http://www.w3.org/1999/xlink" x="0px" y="0px"
	 width="59px" height="60px" viewBox="0 0 59 60" enable-background="new 0 0 59 60" xml:space="preserve">
<g>
	<g>
		<path fill="#2F57A6" d="M10.974,11.989l15.603,4.592l0.779-2.487l-16.716-4.92L3.212,13.33l1.34,2.251L10.974,11.989z
			 M10.974,16.576l15.603,4.593l0.779-2.487l-16.716-4.919l-7.429,4.155l1.34,2.252L10.974,16.576z M10.974,21.164l15.603,4.591
			l0.779-2.487l-16.716-4.919l-7.429,4.155l1.34,2.251L10.974,21.164z M10.974,25.749l15.603,4.593l0.779-2.487l-16.716-4.92
			l-7.429,4.156l1.34,2.251L10.974,25.749z M10.974,30.337l15.603,4.592l0.779-2.487l-16.716-4.919l-7.429,4.154l1.34,2.252
			L10.974,30.337z M10.974,34.924l15.603,4.593l0.779-2.488L10.641,32.11l-7.429,4.155l1.34,2.251L10.974,34.924z M10.974,39.511
			l15.603,4.592l0.779-2.487l-16.716-4.92l-7.429,4.154l1.34,2.251L10.974,39.511z M10.974,44.097l15.603,4.593l0.779-2.487
			l-16.716-4.92l-7.429,4.155l1.34,2.252L10.974,44.097z M36.462,11.989l15.603,4.592l0.779-2.487l-16.716-4.92l-7.429,4.155
			l1.34,2.251L36.462,11.989z M36.462,7.402l15.603,4.592l0.779-2.487l-16.716-4.92l-7.429,4.155l1.34,2.25L36.462,7.402z
			 M36.462,2.816l15.603,4.592l0.779-2.487L36.128,0l-7.429,4.155l1.34,2.252L36.462,2.816z M36.462,16.576l15.603,4.593
			l0.779-2.487l-16.716-4.919l-7.429,4.155l1.34,2.252L36.462,16.576z M36.462,21.164l15.603,4.591l0.779-2.487l-16.716-4.919
			l-7.429,4.155l1.34,2.251L36.462,21.164z M36.462,25.749l15.603,4.593l0.779-2.487l-16.716-4.92l-7.429,4.156l1.34,2.251
			L36.462,25.749z M36.462,30.337l15.603,4.592l0.779-2.487l-16.716-4.919l-7.429,4.154l1.34,2.252L36.462,30.337z M36.462,34.924
			l15.603,4.593l0.779-2.488L36.128,32.11l-7.429,4.155l1.34,2.251L36.462,34.924z M36.462,39.511l15.603,4.592l0.779-2.487
			l-16.716-4.92l-7.429,4.154l1.34,2.251L36.462,39.511z M36.462,44.097l15.603,4.593l0.779-2.487l-16.716-4.92l-7.429,4.155
			l1.34,2.252L36.462,44.097z M52.093,57.513v-4.328l0.75-2.394l-16.716-4.92l-7.429,4.155l0.75,1.261v6.227h-2.843v-4.328
			l0.75-2.394l-16.716-4.92l-7.429,4.155l0.75,1.261v6.227H0V60h59v-2.487H52.093z M22.686,57.513h-8.191v-5.285l8.191,1.907V57.513
			z M48.173,57.513h-8.191v-5.285l8.191,1.907V57.513z"/>
	</g>
</g>
</svg>
