<?xml version="1.0" encoding="utf-8"?>
<!-- Generator: Adobe Illustrator 17.0.0, SVG Export Plug-In . SVG Version: 6.00 Build 0)  -->
<!DOCTYPE svg PUBLIC "-//W3C//DTD SVG 1.1//EN" "http://www.w3.org/Graphics/SVG/1.1/DTD/svg11.dtd">
<svg version="1.1" id="Layer_1" xmlns="http://www.w3.org/2000/svg" xmlns:xlink="http://www.w3.org/1999/xlink" x="0px" y="0px"
	 width="27px" height="26px" viewBox="0 0 27 26" enable-background="new 0 0 27 26" xml:space="preserve">
<g>
	<path fill="#D89E28" d="M10.375,0.109c0.911,0.261,1.367,0.781,1.367,1.563v0.391c-1.921,4.59-2.897,8.562-2.93,11.914
		c0,1.953,0.781,4.232,2.344,6.836l0.195,0.977c0,2.083-1.367,3.386-4.102,3.906c-3.125,0-5.144-4.102-6.055-12.305
		c0-4.362,2.344-8.528,7.031-12.5L10.375,0.109z M24.438,0.5c0.911,0.391,1.367,0.977,1.367,1.758
		c-2.084,4.623-3.125,8.594-3.125,11.914c0,1.986,0.846,4.46,2.539,7.422v0.586c-0.456,2.474-1.628,3.711-3.516,3.711h-0.781
		c-2.67,0-4.558-3.32-5.664-9.961v-3.32c0-3.483,2.213-7.194,6.641-11.133C22.81,0.826,23.656,0.5,24.438,0.5z"/>
</g>
</svg>
