<?xml version="1.0" encoding="utf-8"?>
<!-- Generator: Adobe Illustrator 17.0.0, SVG Export Plug-In . SVG Version: 6.00 Build 0)  -->
<!DOCTYPE svg PUBLIC "-//W3C//DTD SVG 1.1//EN" "http://www.w3.org/Graphics/SVG/1.1/DTD/svg11.dtd">
<svg version="1.1" id="Layer_1" xmlns="http://www.w3.org/2000/svg" xmlns:xlink="http://www.w3.org/1999/xlink" x="0px" y="0px"
	 width="26px" height="16px" viewBox="0 0 26 16" enable-background="new 0 0 26 16" xml:space="preserve">
<path fill="#D76148" d="M23.11,6.315V3.369h-2.474v2.946h-2.892v2.528h2.892v2.95h2.474v-2.95H26V6.315H23.11z M15.507,6.315H7.84
	v2.528h4.878c-0.394,2.39-2.425,4.214-4.878,4.214c-2.736,0-4.95-2.265-4.95-5.057c0-2.789,2.215-5.054,4.952-5.054
	c1.171,0,2.242,0.418,3.089,1.11l2.359-1.805C11.877,0.861,9.958,0,7.84,0C3.509,0,0,3.583,0,8c0,4.42,3.509,8,7.84,8
	c4.052,0,7.385-3.137,7.796-7.157h0.046l-0.04-0.077C15.667,8.514,15.684,8.258,15.684,8C15.684,7.421,15.618,6.86,15.507,6.315z"/>
</svg>
