<?xml version="1.0" encoding="utf-8"?>
<!-- Generator: Adobe Illustrator 17.0.0, SVG Export Plug-In . SVG Version: 6.00 Build 0)  -->
<!DOCTYPE svg PUBLIC "-//W3C//DTD SVG 1.1//EN" "http://www.w3.org/Graphics/SVG/1.1/DTD/svg11.dtd">
<svg version="1.1" id="Layer_1" xmlns="http://www.w3.org/2000/svg" xmlns:xlink="http://www.w3.org/1999/xlink" x="0px" y="0px"
	 width="20px" height="20px" viewBox="0 0 20 20" enable-background="new 0 0 20 20" xml:space="preserve">
<g>
	<g>
		<path fill="#D89D28" d="M10,0C4.487,0,0.002,4.486,0.002,10.001c0,5.514,4.485,10,9.998,10c5.512,0,9.998-4.485,9.998-10
			C19.998,4.486,15.513,0,10,0z M10,18.946c-4.932,0-8.944-4.014-8.944-8.946c0-4.933,4.012-8.946,8.944-8.946
			c4.932,0,8.944,4.013,8.944,8.946C18.944,14.932,14.932,18.946,10,18.946z M14.144,8.224H11.78V5.855
			c0-0.327-0.264-0.592-0.591-0.592H8.823c-0.327,0-0.591,0.266-0.591,0.592v2.369H5.856c-0.327,0-0.593,0.264-0.593,0.591v2.369
			c0,0.329,0.266,0.594,0.593,0.594h2.375v2.362c0,0.329,0.265,0.595,0.591,0.595h2.365c0.327,0,0.591-0.266,0.591-0.595v-2.362
			h2.364c0.327,0,0.591-0.266,0.591-0.594V8.816C14.735,8.488,14.471,8.224,14.144,8.224z"/>
	</g>
</g>
</svg>
