<?xml version="1.0" encoding="utf-8"?>
<!-- Generator: Adobe Illustrator 17.0.0, SVG Export Plug-In . SVG Version: 6.00 Build 0)  -->
<!DOCTYPE svg PUBLIC "-//W3C//DTD SVG 1.1//EN" "http://www.w3.org/Graphics/SVG/1.1/DTD/svg11.dtd">
<svg version="1.1" id="Layer_1" xmlns="http://www.w3.org/2000/svg" xmlns:xlink="http://www.w3.org/1999/xlink" x="0px" y="0px"
	 width="20px" height="20px" viewBox="0 0 20 20" enable-background="new 0 0 20 20" xml:space="preserve">
<path fill-rule="evenodd" clip-rule="evenodd" fill="#204385" d="M14.313,0.006c0,1.155,0,3.22,0,3.22s-2.191-0.237-2.74,0.671
	c-0.3,0.497-0.122,1.952-0.148,2.997c0.956,0,1.95,0,2.906,0c-0.246,1.222-0.422,2.05-0.602,3.107c-0.828,0-2.32,0-2.32,0V20
	c0,0-2.738,0-4.026,0c0-3.083-0.001-6.679,0-9.959c-0.626,0-1.088,0-1.713,0c0-1.153,0-1.994,0-3.146c0.607,0,1.087,0,1.694,0
	c0.087-2.301,0.12-4.579,1.175-5.74C9.725-0.15,10.856,0.006,14.313,0.006z"/>
</svg>
