<?xml version="1.0" encoding="utf-8"?>
<!-- Generator: Adobe Illustrator 17.0.0, SVG Export Plug-In . SVG Version: 6.00 Build 0)  -->
<!DOCTYPE svg PUBLIC "-//W3C//DTD SVG 1.1//EN" "http://www.w3.org/Graphics/SVG/1.1/DTD/svg11.dtd">
<svg version="1.1" id="Layer_1" xmlns="http://www.w3.org/2000/svg" xmlns:xlink="http://www.w3.org/1999/xlink" x="0px" y="0px"
	 width="19px" height="20px" viewBox="0 0 19 20" enable-background="new 0 0 19 20" xml:space="preserve">
<path fill="#D89D28" d="M5.412,13.168h11.274c1.279,0,2.319-1.018,2.319-2.269V6.217c0-0.012,0-0.019-0.003-0.025
	c0-0.01-0.006-0.021-0.006-0.03c0-0.008-0.003-0.017-0.003-0.025C18.99,6.127,18.99,6.12,18.987,6.109
	c-0.006-0.008-0.006-0.017-0.009-0.026c-0.006-0.009-0.006-0.015-0.012-0.023c-0.003-0.01-0.006-0.018-0.012-0.029
	c-0.003-0.009-0.009-0.016-0.012-0.02l-0.012-0.028c-0.006-0.008-0.009-0.011-0.015-0.018c-0.003-0.011-0.012-0.018-0.018-0.025
	c-0.003-0.008-0.006-0.013-0.012-0.021c-0.006-0.009-0.018-0.013-0.021-0.021c-0.003-0.006-0.012-0.011-0.017-0.02
	c-0.003-0.007-0.012-0.011-0.015-0.016l-0.021-0.02c-0.009-0.004-0.012-0.013-0.021-0.019c-0.012-0.004-0.018-0.01-0.026-0.014
	c-0.009-0.004-0.012-0.009-0.021-0.013c-0.012-0.004-0.018-0.009-0.026-0.016l-0.05-0.024l-0.027-0.012
	c-0.006-0.005-0.015-0.005-0.024-0.009c-0.009-0.003-0.024-0.009-0.029-0.009c-0.009,0-0.018-0.003-0.021-0.003
	c-0.015-0.005-0.024-0.005-0.035-0.005c-0.003,0-0.009-0.003-0.018-0.003L4.233,3.786V1.839c0-0.02,0-0.042-0.003-0.059
	c0-0.005,0-0.006-0.006-0.016c0-0.012-0.006-0.024-0.006-0.037c-0.003-0.01-0.003-0.02-0.009-0.03c0-0.01-0.003-0.014-0.003-0.023
	L4.195,1.636c0-0.004-0.003-0.011-0.003-0.014C4.186,1.609,4.183,1.6,4.171,1.587C4.169,1.584,4.169,1.576,4.166,1.573
	C4.16,1.563,4.157,1.554,4.148,1.547c-0.003-0.009-0.006-0.013-0.015-0.02C4.13,1.518,4.127,1.514,4.121,1.504
	C4.119,1.498,4.11,1.491,4.107,1.481L4.069,1.445L4.054,1.431c-0.006-0.007-0.015-0.014-0.03-0.023
	C4.022,1.402,4.013,1.4,4.01,1.395C4.001,1.386,3.992,1.382,3.983,1.373c-0.012-0.005-0.026-0.014-0.035-0.02
	c0-0.003-0.006-0.003-0.012-0.009C3.922,1.337,3.901,1.329,3.883,1.32L0.786,0.046c-0.291-0.119-0.62,0.015-0.747,0.295
	c-0.12,0.286,0.015,0.607,0.306,0.728l2.748,1.133v12.156c0,1.149,0.882,2.103,2.022,2.245c-0.206,0.339-0.329,0.733-0.329,1.152
	c0,1.236,1.032,2.241,2.293,2.241c1.264,0,2.292-1.006,2.292-2.241c0-0.411-0.115-0.801-0.315-1.129h5.102
	c-0.203,0.332-0.314,0.718-0.314,1.129c0,1.236,1.032,2.241,2.29,2.241c1.264,0,2.292-1.006,2.292-2.241
	c0-1.231-1.029-2.238-2.292-2.238H5.412c-0.652,0-1.181-0.522-1.181-1.159v-1.505C4.571,13.051,4.983,13.168,5.412,13.168
	L5.412,13.168z M8.239,17.754c0,0.625-0.523,1.13-1.158,1.13c-0.632,0-1.155-0.511-1.155-1.13c0-0.623,0.523-1.129,1.155-1.129
	C7.716,16.624,8.239,17.129,8.239,17.754L8.239,17.754z M17.294,17.754c0,0.625-0.52,1.13-1.155,1.13s-1.158-0.511-1.158-1.13
	c0-0.623,0.523-1.129,1.158-1.129S17.294,17.129,17.294,17.754L17.294,17.754z M16.686,12.058H5.412
	c-0.652,0-1.181-0.522-1.181-1.159V4.904l13.64,1.835v4.157C17.87,11.541,17.338,12.058,16.686,12.058L16.686,12.058z
	 M16.686,12.058"/>
</svg>
