<?xml version="1.0" encoding="utf-8"?>
<!-- Generator: Adobe Illustrator 17.0.0, SVG Export Plug-In . SVG Version: 6.00 Build 0)  -->
<!DOCTYPE svg PUBLIC "-//W3C//DTD SVG 1.1//EN" "http://www.w3.org/Graphics/SVG/1.1/DTD/svg11.dtd">
<svg version="1.1" id="Layer_1" xmlns="http://www.w3.org/2000/svg" xmlns:xlink="http://www.w3.org/1999/xlink" x="0px" y="0px"
	 width="26px" height="20px" viewBox="0 0 26 20" enable-background="new 0 0 26 20" xml:space="preserve">
<g>
	<g>
		<path fill="#EB2429" d="M25.74,4.883c0,0-0.255-1.763-1.033-2.54c-0.99-1.019-2.098-1.025-2.605-1.084C18.463,1,13.006,1,13.006,1
			h-0.012c0,0-5.458,0-9.096,0.259C3.391,1.318,2.282,1.324,1.293,2.343C0.514,3.12,0.26,4.883,0.26,4.883S0,6.954,0,9.026v1.941
			c0,2.07,0.26,4.142,0.26,4.142s0.254,1.763,1.033,2.54c0.989,1.02,2.288,0.987,2.867,1.095C6.24,18.939,13,19,13,19
			s5.463-0.008,9.102-0.267c0.508-0.06,1.615-0.064,2.605-1.084c0.778-0.777,1.033-2.54,1.033-2.54S26,13.037,26,10.967V9.026
			C26,6.954,25.74,4.883,25.74,4.883z M10.285,13.548V6.339l6.908,3.534L10.285,13.548z"/>
	</g>
</g>
</svg>
