<?xml version="1.0" encoding="utf-8"?>
<!-- Generator: Adobe Illustrator 17.0.0, SVG Export Plug-In . SVG Version: 6.00 Build 0)  -->
<!DOCTYPE svg PUBLIC "-//W3C//DTD SVG 1.1//EN" "http://www.w3.org/Graphics/SVG/1.1/DTD/svg11.dtd">
<svg version="1.1" id="Layer_1" xmlns="http://www.w3.org/2000/svg" xmlns:xlink="http://www.w3.org/1999/xlink" x="0px" y="0px"
	 width="19px" height="15px" viewBox="1.5 1.5 19 15" enable-background="new 1.5 1.5 19 15" xml:space="preserve">
<g>
	<g>
		<path fill="#D89D28" d="M14.159,10.939c-0.402,0.298-0.73,0.531-0.981,0.698c-0.25,0.167-0.585,0.337-1.002,0.512
			c-0.417,0.174-0.806,0.261-1.167,0.261h-0.021c-0.361,0-0.75-0.086-1.167-0.261c-0.417-0.174-0.751-0.344-1.002-0.512
			c-0.251-0.167-0.578-0.399-0.981-0.698c-0.112-0.083-0.237-0.174-0.371-0.271l-5.384,5.41c0.314,0.28,0.685,0.422,1.112,0.422
			h15.607c0.427,0,0.797-0.142,1.111-0.422l-5.383-5.409C14.403,10.763,14.278,10.853,14.159,10.939z M2.571,7.264
			C2.168,6.994,1.811,6.685,1.5,6.337v8.23L6.245,9.8C5.296,9.134,4.073,8.289,2.571,7.264z M15.757,9.801l4.743,4.765V6.337
			c-0.304,0.341-0.657,0.65-1.061,0.927C17.995,8.246,16.768,9.091,15.757,9.801z M3.324,6.124c0.24,0.17,0.965,0.677,2.174,1.518
			c0.652,0.455,1.22,0.851,1.707,1.192c0.415,0.291,0.775,0.543,1.07,0.752C8.309,9.611,8.362,9.649,8.433,9.7
			C8.51,9.755,8.607,9.825,8.726,9.912c0.23,0.167,0.421,0.302,0.573,0.405c0.152,0.103,0.336,0.219,0.552,0.346
			c0.216,0.128,0.419,0.224,0.61,0.288c0.191,0.064,0.368,0.096,0.53,0.096h0.021c0.162,0,0.339-0.032,0.53-0.096
			c0.191-0.064,0.394-0.16,0.61-0.288s0.399-0.244,0.551-0.346c0.152-0.103,0.343-0.239,0.573-0.405
			c0.119-0.086,0.216-0.156,0.292-0.212c0.071-0.051,0.124-0.089,0.159-0.113c0.231-0.162,0.59-0.412,1.073-0.749
			c0.879-0.614,2.174-1.517,3.889-2.713c0.516-0.362,0.947-0.799,1.294-1.31C20.326,4.302,20.5,3.766,20.5,3.205
			c0-0.469-0.168-0.87-0.503-1.204c-0.336-0.334-0.733-0.5-1.193-0.5H3.196c-0.545,0-0.963,0.185-1.257,0.554
			C1.647,2.423,1.5,2.885,1.5,3.439c0,0.447,0.194,0.932,0.583,1.454C2.472,5.416,2.885,5.825,3.324,6.124z"/>
	</g>
</g>
</svg>
