<?xml version="1.0" encoding="utf-8"?>
<!-- Generator: Adobe Illustrator 17.0.0, SVG Export Plug-In . SVG Version: 6.00 Build 0)  -->
<!DOCTYPE svg PUBLIC "-//W3C//DTD SVG 1.1//EN" "http://www.w3.org/Graphics/SVG/1.1/DTD/svg11.dtd">
<svg version="1.1" id="Layer_1" xmlns="http://www.w3.org/2000/svg" xmlns:xlink="http://www.w3.org/1999/xlink" x="0px" y="0px"
	 width="23px" height="20px" viewBox="0 0 23 20" enable-background="new 0 0 23 20" xml:space="preserve">
<g>
	<g>
		<path fill="#D89D28" d="M22.997,17.308L21.863,4.379c-0.023-0.274-0.25-0.481-0.52-0.481h-2.347C18.98,1.744,17.247,0,15.127,0
			c-2.122,0-3.853,1.744-3.872,3.899H8.908c-0.27,0-0.495,0.212-0.52,0.481L7.257,17.308v0.049c0,1.454,1.316,2.643,2.938,2.643
			h9.867C21.679,20,23,18.817,23,17.357C23,17.336,23,17.323,22.997,17.308z M15.133,1.055c1.548,0,2.813,1.275,2.833,2.843h-5.674
			C12.311,2.33,13.576,1.055,15.133,1.055z M20.062,18.943h-9.867c-1.037,0-1.886-0.7-1.901-1.567L9.379,4.953h1.872v1.706
			c0,0.292,0.23,0.527,0.517,0.527c0.29,0,0.517-0.236,0.517-0.527V4.953h5.674v1.706c0,0.292,0.23,0.527,0.52,0.527
			c0.287,0,0.517-0.236,0.517-0.527V4.953h1.872l1.085,12.422C21.949,18.242,21.102,18.943,20.062,18.943z M6.049,8.443H2.495
			c-0.287,0-0.52,0.234-0.52,0.526c0,0.292,0.233,0.524,0.52,0.524h3.554c0.29,0,0.52-0.232,0.52-0.524
			C6.569,8.677,6.339,8.443,6.049,8.443z M6.049,11.008H0.518C0.23,11.008,0,11.244,0,11.537c0,0.29,0.23,0.527,0.518,0.527h5.532
			c0.29,0,0.52-0.237,0.52-0.527C6.569,11.244,6.339,11.008,6.049,11.008z M6.049,13.576H2.495c-0.287,0-0.52,0.235-0.52,0.527
			s0.233,0.526,0.52,0.526h3.554c0.29,0,0.52-0.234,0.52-0.526S6.339,13.576,6.049,13.576z"/>
	</g>
</g>
</svg>
