<?xml version="1.0" encoding="utf-8"?>
<!-- Generator: Adobe Illustrator 17.0.0, SVG Export Plug-In . SVG Version: 6.00 Build 0)  -->
<!DOCTYPE svg PUBLIC "-//W3C//DTD SVG 1.1//EN" "http://www.w3.org/Graphics/SVG/1.1/DTD/svg11.dtd">
<svg version="1.1" id="Layer_1" xmlns="http://www.w3.org/2000/svg" xmlns:xlink="http://www.w3.org/1999/xlink" x="0px" y="0px"
	 width="11.692px" height="19px" viewBox="2.154 3.5 11.692 19" enable-background="new 2.154 3.5 11.692 19" xml:space="preserve">
<path fill="#D89D28" d="M8,3.5c-3.223,0-5.846,2.819-5.846,6.285c0,1.396,0.829,3.671,2.534,6.957
	c1.207,2.324,2.393,4.261,2.442,4.342L8,22.5l0.869-1.416c0.05-0.081,1.236-2.018,2.443-4.342c1.706-3.286,2.534-5.561,2.534-6.957
	C13.846,6.319,11.223,3.5,8,3.5z M8,13c-1.673,0-3.03-1.459-3.03-3.258S6.327,6.484,8,6.484s3.03,1.459,3.03,3.258
	C11.031,11.541,9.673,13,8,13z"/>
</svg>
