<?xml version="1.0" encoding="utf-8"?>
<!-- Generator: Adobe Illustrator 17.0.0, SVG Export Plug-In . SVG Version: 6.00 Build 0)  -->
<!DOCTYPE svg PUBLIC "-//W3C//DTD SVG 1.1//EN" "http://www.w3.org/Graphics/SVG/1.1/DTD/svg11.dtd">
<svg version="1.1" id="Layer_1" xmlns="http://www.w3.org/2000/svg" xmlns:xlink="http://www.w3.org/1999/xlink" x="0px" y="0px"
	 width="20px" height="20px" viewBox="0 0 20 20" enable-background="new 0 0 20 20" xml:space="preserve">
<g>
	<g>
		<path fill="#D89D28" d="M11.37,9.484c0.059,0.117,0.177,0.184,0.298,0.184c0.05,0,0.103-0.011,0.151-0.036
			c0.02-0.01,1.981-1.006,2.949-1.312c0.176-0.057,0.272-0.243,0.216-0.42c-0.054-0.174-0.24-0.272-0.417-0.218
			c-1.02,0.324-2.968,1.312-3.051,1.353C11.352,9.12,11.286,9.322,11.37,9.484z M11.668,5.667c0.05,0,0.103-0.011,0.151-0.036
			c0.02-0.009,1.981-1.006,2.949-1.313c0.176-0.056,0.272-0.242,0.216-0.417c-0.054-0.176-0.24-0.273-0.417-0.22
			c-1.02,0.324-2.968,1.313-3.051,1.355c-0.164,0.084-0.23,0.285-0.146,0.447C11.428,5.6,11.546,5.667,11.668,5.667z M19.667,5
			c-0.184,0-0.334,0.151-0.334,0.332v13c0,0.553-0.449,1-1,1h-8v-0.765c0.487-0.171,1.751-0.568,3-0.568
			c2.903,0,4.877,0.643,4.895,0.65c0.1,0.034,0.212,0.017,0.3-0.046c0.087-0.062,0.139-0.164,0.139-0.272V3.668
			c0-0.157-0.108-0.293-0.262-0.326c0,0-0.261-0.06-0.708-0.142c-0.18-0.03-0.354,0.088-0.388,0.269
			c-0.033,0.181,0.087,0.355,0.267,0.389c0.17,0.031,0.313,0.059,0.422,0.08v13.953c-0.754-0.199-2.431-0.558-4.666-0.558
			c-1.452,0-2.879,0.478-3.321,0.64c-0.392-0.173-1.578-0.64-3.014-0.64c-2.296,0-4.187,0.379-5,0.571V3.925
			c0.667-0.164,2.632-0.593,5-0.593c1.216,0,2.258,0.381,2.668,0.551v13.119c0,0.12,0.065,0.229,0.168,0.29
			c0.105,0.059,0.234,0.057,0.336-0.005c0.034-0.02,3.337-1.992,6.268-2.969c0.137-0.047,0.229-0.173,0.229-0.316V0.334
			c0-0.108-0.055-0.212-0.144-0.274c-0.089-0.061-0.204-0.078-0.307-0.038c-2.668,1.002-5.366,2.681-5.393,2.696
			c-0.156,0.097-0.203,0.305-0.106,0.461c0.098,0.154,0.304,0.204,0.46,0.104c0.024-0.014,2.372-1.475,4.824-2.461V13.76
			c-2.275,0.792-4.652,2.082-5.667,2.661V3.668c0-0.127-0.072-0.242-0.184-0.298c-0.058-0.03-1.424-0.702-3.15-0.702
			c-3.011,0-5.328,0.653-5.425,0.679C1.432,3.388,1.333,3.519,1.333,3.668v14.664c0,0.104,0.049,0.205,0.132,0.267
			c0.059,0.044,0.129,0.068,0.201,0.068c0.03,0,0.062-0.004,0.091-0.013C1.78,18.645,4.085,18,6.999,18
			c1.22,0,2.261,0.38,2.668,0.551v0.782h-8c-0.552,0-1-0.447-1-1v-13C0.667,5.151,0.517,5,0.332,5C0.149,5,0,5.151,0,5.332v13
			C0,19.254,0.747,20,1.667,20h16.666C19.252,20,20,19.254,20,18.332v-13C20,5.151,19.851,5,19.667,5z M11.37,7.484
			c0.059,0.118,0.177,0.182,0.298,0.182c0.05,0,0.103-0.011,0.151-0.036c0.02-0.009,1.981-1.005,2.949-1.313
			c0.176-0.055,0.272-0.242,0.216-0.418c-0.054-0.176-0.24-0.273-0.417-0.218c-1.02,0.323-2.968,1.315-3.051,1.354
			C11.352,7.121,11.286,7.321,11.37,7.484z M11.37,11.483c0.059,0.117,0.177,0.184,0.298,0.184c0.05,0,0.103-0.013,0.151-0.036
			c0.02-0.011,1.981-1.008,2.949-1.313c0.176-0.055,0.272-0.244,0.216-0.42c-0.054-0.175-0.24-0.272-0.417-0.216
			c-1.02,0.323-2.968,1.312-3.051,1.352C11.352,11.12,11.286,11.323,11.37,11.483z M8.075,6.186C6.018,5.705,3.679,6.318,3.58,6.344
			c-0.177,0.05-0.283,0.232-0.236,0.41c0.04,0.148,0.174,0.247,0.322,0.247c0.028,0,0.058-0.003,0.086-0.011
			c0.022-0.007,2.275-0.599,4.171-0.156c0.179,0.043,0.359-0.069,0.401-0.247C8.367,6.408,8.256,6.23,8.075,6.186z M8.075,8.186
			C6.018,7.706,3.679,8.32,3.58,8.346c-0.177,0.045-0.283,0.23-0.236,0.41c0.04,0.145,0.174,0.245,0.322,0.245
			c0.028,0,0.058-0.004,0.086-0.012C3.775,8.983,6.028,8.39,7.924,8.836c0.179,0.043,0.359-0.07,0.401-0.248
			C8.367,8.408,8.256,8.228,8.075,8.186z M11.37,13.485c0.059,0.116,0.177,0.181,0.298,0.181c0.05,0,0.103-0.011,0.151-0.037
			c0.02-0.009,1.981-1.004,2.949-1.311c0.176-0.054,0.272-0.242,0.216-0.417c-0.054-0.175-0.24-0.273-0.417-0.217
			c-1.02,0.321-2.968,1.312-3.051,1.353C11.352,13.121,11.286,13.319,11.37,13.485z M8.075,10.188
			c-2.058-0.481-4.397,0.131-4.495,0.156c-0.177,0.049-0.283,0.231-0.236,0.409c0.04,0.149,0.174,0.25,0.322,0.25
			c0.028,0,0.058-0.005,0.086-0.013c0.022-0.007,2.275-0.6,4.171-0.155c0.179,0.04,0.359-0.069,0.401-0.251
			C8.367,10.409,8.256,10.23,8.075,10.188z M8.075,14.185c-2.058-0.482-4.397,0.131-4.495,0.159
			c-0.177,0.048-0.283,0.231-0.236,0.409c0.04,0.149,0.174,0.247,0.322,0.247c0.028,0,0.058-0.004,0.086-0.011
			c0.022-0.006,2.275-0.599,4.171-0.156c0.179,0.044,0.359-0.067,0.401-0.247C8.367,14.407,8.256,14.228,8.075,14.185z
			 M8.075,12.185c-2.058-0.483-4.397,0.133-4.495,0.158c-0.177,0.051-0.283,0.234-0.236,0.411c0.04,0.149,0.174,0.249,0.322,0.249
			c0.028,0,0.058-0.005,0.086-0.012c0.022-0.007,2.275-0.599,4.171-0.156c0.179,0.043,0.359-0.069,0.401-0.248
			C8.367,12.41,8.256,12.229,8.075,12.185z"/>
	</g>
</g>
</svg>
