<?xml version="1.0" encoding="utf-8"?>
<!-- Generator: Adobe Illustrator 17.0.0, SVG Export Plug-In . SVG Version: 6.00 Build 0)  -->
<!DOCTYPE svg PUBLIC "-//W3C//DTD SVG 1.1//EN" "http://www.w3.org/Graphics/SVG/1.1/DTD/svg11.dtd">
<svg version="1.1" id="Layer_1" xmlns="http://www.w3.org/2000/svg" xmlns:xlink="http://www.w3.org/1999/xlink" x="0px" y="0px"
	 width="17.003px" height="17px" viewBox="3.998 4 17.003 17" enable-background="new 3.998 4 17.003 17" xml:space="preserve">
<g>
	<g>
		<path fill="#D89D28" d="M9.552,9.379l0.621-0.623l0.669-0.67c0.236-0.235,0.236-0.62,0.003-0.854l-3.052-3.06
			C7.559,3.94,7.182,3.944,6.947,4.179c-0.506,0.508-1.01,1.016-1.516,1.522l3.917,3.927C9.408,9.54,9.476,9.458,9.552,9.379z
			 M12.569,16.026c-0.641-0.553-1.257-1.14-1.853-1.739c-0.596-0.601-1.179-1.215-1.732-1.861c-0.452-0.524-0.541-1.282-0.304-1.922
			L4.659,6.476C3.724,7.441,3.844,9.831,4.869,11.93c0.441,0.91,1.011,1.728,1.601,2.508c0.59,0.774,1.234,1.506,1.915,2.192
			c0.683,0.685,1.408,1.337,2.182,1.926c0.778,0.594,1.599,1.163,2.498,1.601c2.098,1.027,4.484,1.139,5.444,0.201l-4.02-4.03
			C13.851,16.566,13.094,16.478,12.569,16.026z M20.803,17.215l-3.05-3.059c-0.235-0.232-0.618-0.232-0.851,0.003h-0.001l-0.67,0.67
			l-0.619,0.623c-0.076,0.076-0.16,0.145-0.249,0.207l3.917,3.928c0.507-0.509,1.012-1.015,1.518-1.52
			C21.032,17.83,21.038,17.45,20.803,17.215z"/>
	</g>
</g>
</svg>
