<?xml version="1.0" encoding="utf-8"?>
<!-- Generator: Adobe Illustrator 17.0.0, SVG Export Plug-In . SVG Version: 6.00 Build 0)  -->
<!DOCTYPE svg PUBLIC "-//W3C//DTD SVG 1.1//EN" "http://www.w3.org/Graphics/SVG/1.1/DTD/svg11.dtd">
<svg version="1.1" id="Layer_1" xmlns="http://www.w3.org/2000/svg" xmlns:xlink="http://www.w3.org/1999/xlink" x="0px" y="0px"
	 width="36px" height="36px" viewBox="0 0 36 36" enable-background="new 0 0 36 36" xml:space="preserve">
<path fill-rule="evenodd" clip-rule="evenodd" fill="#D89D29" d="M4.615,0h26.769C33.934,0,36,2.066,36,4.615v26.769
	C36,33.934,33.934,36,31.385,36H4.615C2.066,36,0,33.934,0,31.385V4.615C0,2.066,2.066,0,4.615,0z"/>
<path fill-rule="evenodd" clip-rule="evenodd" fill="#FFFFFF" d="M24.5,24.01L18,17.499l-6.5,6.511l1.466,1.49L18,20.457
	l5.033,5.043L24.5,24.01z"/>
<path fill-rule="evenodd" clip-rule="evenodd" fill="#FFFFFF" d="M24.5,17.01L18,10.499l-6.5,6.511l1.466,1.49L18,13.457
	l5.033,5.043L24.5,17.01z"/>
</svg>
